# EASY Shapes Studio — modèle 3D : headphones
mtllib headphones.mtl
o headphones
usemtl mat_headphones
v 1.6000 0.1600 0.0000
v 1.5217 0.1600 0.4944
v 1.2944 0.1600 0.9405
v 0.9405 0.1600 1.2944
v 0.4944 0.1600 1.5217
v 0.0000 0.1600 1.6000
v -0.4944 0.1600 1.5217
v -0.9405 0.1600 1.2944
v -1.2944 0.1600 0.9405
v -1.5217 0.1600 0.4944
v -1.6000 0.1600 0.0000
v -1.5217 0.1600 -0.4944
v -1.2944 0.1600 -0.9405
v -0.9405 0.1600 -1.2944
v -0.4944 0.1600 -1.5217
v -0.0000 0.1600 -1.6000
v 0.4944 0.1600 -1.5217
v 0.9405 0.1600 -1.2944
v 1.2944 0.1600 -0.9405
v 1.5217 0.1600 -0.4944
v 1.6000 -0.1600 0.0000
v 1.5217 -0.1600 0.4944
v 1.2944 -0.1600 0.9405
v 0.9405 -0.1600 1.2944
v 0.4944 -0.1600 1.5217
v 0.0000 -0.1600 1.6000
v -0.4944 -0.1600 1.5217
v -0.9405 -0.1600 1.2944
v -1.2944 -0.1600 0.9405
v -1.5217 -0.1600 0.4944
v -1.6000 -0.1600 0.0000
v -1.5217 -0.1600 -0.4944
v -1.2944 -0.1600 -0.9405
v -0.9405 -0.1600 -1.2944
v -0.4944 -0.1600 -1.5217
v -0.0000 -0.1600 -1.6000
v 0.4944 -0.1600 -1.5217
v 0.9405 -0.1600 -1.2944
v 1.2944 -0.1600 -0.9405
v 1.5217 -0.1600 -0.4944
v -1.7000 0.8500 0.0000
v -1.7000 0.8500 0.0000
v -1.7000 0.8500 0.0000
v -1.7000 0.8500 0.0000
v -1.7000 0.8500 0.0000
v -1.7000 0.8500 0.0000
v -1.7000 0.8500 0.0000
v -1.7000 0.8500 0.0000
v -1.7000 0.8500 0.0000
v -1.7000 0.8500 0.0000
v -1.7000 0.8500 0.0000
v -1.7000 0.8500 0.0000
v -1.7000 0.8500 0.0000
v -1.7000 0.8500 0.0000
v -1.7000 0.8500 0.0000
v -1.7000 0.8500 0.0000
v -1.7000 0.8500 0.0000
v -1.7000 0.8500 0.0000
v -1.5146 0.8084 0.0000
v -1.5258 0.8084 0.0634
v -1.5580 0.8084 0.1192
v -1.6073 0.8084 0.1606
v -1.6678 0.8084 0.1826
v -1.7322 0.8084 0.1826
v -1.7927 0.8084 0.1606
v -1.8420 0.8084 0.1192
v -1.8742 0.8084 0.0634
v -1.8854 0.8084 0.0000
v -1.8742 0.8084 -0.0634
v -1.8420 0.8084 -0.1192
v -1.7927 0.8084 -0.1606
v -1.7322 0.8084 -0.1826
v -1.6678 0.8084 -0.1826
v -1.6073 0.8084 -0.1606
v -1.5580 0.8084 -0.1192
v -1.5258 0.8084 -0.0634
v -1.3473 0.6877 0.0000
v -1.3686 0.6877 0.1206
v -1.4298 0.6877 0.2267
v -1.5237 0.6877 0.3054
v -1.6388 0.6877 0.3473
v -1.7612 0.6877 0.3473
v -1.8763 0.6877 0.3054
v -1.9702 0.6877 0.2267
v -2.0314 0.6877 0.1206
v -2.0527 0.6877 0.0000
v -2.0314 0.6877 -0.1206
v -1.9702 0.6877 -0.2267
v -1.8763 0.6877 -0.3054
v -1.7612 0.6877 -0.3473
v -1.6388 0.6877 -0.3473
v -1.5237 0.6877 -0.3054
v -1.4298 0.6877 -0.2267
v -1.3686 0.6877 -0.1206
v -1.2146 0.4996 0.0000
v -1.2439 0.4996 0.1660
v -1.3282 0.4996 0.3120
v -1.4573 0.4996 0.4204
v -1.6157 0.4996 0.4780
v -1.7843 0.4996 0.4780
v -1.9427 0.4996 0.4204
v -2.0718 0.4996 0.3120
v -2.1561 0.4996 0.1660
v -2.1854 0.4996 0.0000
v -2.1561 0.4996 -0.1660
v -2.0718 0.4996 -0.3120
v -1.9427 0.4996 -0.4204
v -1.7843 0.4996 -0.4780
v -1.6157 0.4996 -0.4780
v -1.4573 0.4996 -0.4204
v -1.3282 0.4996 -0.3120
v -1.2439 0.4996 -0.1660
v -1.1294 0.2627 0.0000
v -1.1638 0.2627 0.1952
v -1.2629 0.2627 0.3668
v -1.4147 0.2627 0.4942
v -1.6009 0.2627 0.5620
v -1.7991 0.2627 0.5620
v -1.9853 0.2627 0.4942
v -2.1371 0.2627 0.3668
v -2.2362 0.2627 0.1952
v -2.2706 0.2627 0.0000
v -2.2362 0.2627 -0.1952
v -2.1371 0.2627 -0.3668
v -1.9853 0.2627 -0.4942
v -1.7991 0.2627 -0.5620
v -1.6009 0.2627 -0.5620
v -1.4147 0.2627 -0.4942
v -1.2629 0.2627 -0.3668
v -1.1638 0.2627 -0.1952
v -1.1000 0.0000 0.0000
v -1.1362 0.0000 0.2052
v -1.2404 0.0000 0.3857
v -1.4000 0.0000 0.5196
v -1.5958 0.0000 0.5909
v -1.8042 0.0000 0.5909
v -2.0000 0.0000 0.5196
v -2.1596 0.0000 0.3857
v -2.2638 0.0000 0.2052
v -2.3000 0.0000 0.0000
v -2.2638 0.0000 -0.2052
v -2.1596 0.0000 -0.3857
v -2.0000 0.0000 -0.5196
v -1.8042 0.0000 -0.5909
v -1.5958 0.0000 -0.5909
v -1.4000 0.0000 -0.5196
v -1.2404 0.0000 -0.3857
v -1.1362 0.0000 -0.2052
v -1.1294 -0.2627 0.0000
v -1.1638 -0.2627 0.1952
v -1.2629 -0.2627 0.3668
v -1.4147 -0.2627 0.4942
v -1.6009 -0.2627 0.5620
v -1.7991 -0.2627 0.5620
v -1.9853 -0.2627 0.4942
v -2.1371 -0.2627 0.3668
v -2.2362 -0.2627 0.1952
v -2.2706 -0.2627 0.0000
v -2.2362 -0.2627 -0.1952
v -2.1371 -0.2627 -0.3668
v -1.9853 -0.2627 -0.4942
v -1.7991 -0.2627 -0.5620
v -1.6009 -0.2627 -0.5620
v -1.4147 -0.2627 -0.4942
v -1.2629 -0.2627 -0.3668
v -1.1638 -0.2627 -0.1952
v -1.2146 -0.4996 0.0000
v -1.2439 -0.4996 0.1660
v -1.3282 -0.4996 0.3120
v -1.4573 -0.4996 0.4204
v -1.6157 -0.4996 0.4780
v -1.7843 -0.4996 0.4780
v -1.9427 -0.4996 0.4204
v -2.0718 -0.4996 0.3120
v -2.1561 -0.4996 0.1660
v -2.1854 -0.4996 0.0000
v -2.1561 -0.4996 -0.1660
v -2.0718 -0.4996 -0.3120
v -1.9427 -0.4996 -0.4204
v -1.7843 -0.4996 -0.4780
v -1.6157 -0.4996 -0.4780
v -1.4573 -0.4996 -0.4204
v -1.3282 -0.4996 -0.3120
v -1.2439 -0.4996 -0.1660
v -1.3473 -0.6877 0.0000
v -1.3686 -0.6877 0.1206
v -1.4298 -0.6877 0.2267
v -1.5237 -0.6877 0.3054
v -1.6388 -0.6877 0.3473
v -1.7612 -0.6877 0.3473
v -1.8763 -0.6877 0.3054
v -1.9702 -0.6877 0.2267
v -2.0314 -0.6877 0.1206
v -2.0527 -0.6877 0.0000
v -2.0314 -0.6877 -0.1206
v -1.9702 -0.6877 -0.2267
v -1.8763 -0.6877 -0.3054
v -1.7612 -0.6877 -0.3473
v -1.6388 -0.6877 -0.3473
v -1.5237 -0.6877 -0.3054
v -1.4298 -0.6877 -0.2267
v -1.3686 -0.6877 -0.1206
v -1.5146 -0.8084 0.0000
v -1.5258 -0.8084 0.0634
v -1.5580 -0.8084 0.1192
v -1.6073 -0.8084 0.1606
v -1.6678 -0.8084 0.1826
v -1.7322 -0.8084 0.1826
v -1.7927 -0.8084 0.1606
v -1.8420 -0.8084 0.1192
v -1.8742 -0.8084 0.0634
v -1.8854 -0.8084 0.0000
v -1.8742 -0.8084 -0.0634
v -1.8420 -0.8084 -0.1192
v -1.7927 -0.8084 -0.1606
v -1.7322 -0.8084 -0.1826
v -1.6678 -0.8084 -0.1826
v -1.6073 -0.8084 -0.1606
v -1.5580 -0.8084 -0.1192
v -1.5258 -0.8084 -0.0634
v -1.7000 -0.8500 0.0000
v -1.7000 -0.8500 0.0000
v -1.7000 -0.8500 0.0000
v -1.7000 -0.8500 0.0000
v -1.7000 -0.8500 0.0000
v -1.7000 -0.8500 0.0000
v -1.7000 -0.8500 0.0000
v -1.7000 -0.8500 0.0000
v -1.7000 -0.8500 0.0000
v -1.7000 -0.8500 0.0000
v -1.7000 -0.8500 -0.0000
v -1.7000 -0.8500 -0.0000
v -1.7000 -0.8500 -0.0000
v -1.7000 -0.8500 -0.0000
v -1.7000 -0.8500 -0.0000
v -1.7000 -0.8500 -0.0000
v -1.7000 -0.8500 -0.0000
v -1.7000 -0.8500 -0.0000
v 1.7000 0.8500 0.0000
v 1.7000 0.8500 0.0000
v 1.7000 0.8500 0.0000
v 1.7000 0.8500 0.0000
v 1.7000 0.8500 0.0000
v 1.7000 0.8500 0.0000
v 1.7000 0.8500 0.0000
v 1.7000 0.8500 0.0000
v 1.7000 0.8500 0.0000
v 1.7000 0.8500 0.0000
v 1.7000 0.8500 0.0000
v 1.7000 0.8500 0.0000
v 1.7000 0.8500 0.0000
v 1.7000 0.8500 0.0000
v 1.7000 0.8500 0.0000
v 1.7000 0.8500 0.0000
v 1.7000 0.8500 0.0000
v 1.7000 0.8500 0.0000
v 1.8854 0.8084 0.0000
v 1.8742 0.8084 0.0634
v 1.8420 0.8084 0.1192
v 1.7927 0.8084 0.1606
v 1.7322 0.8084 0.1826
v 1.6678 0.8084 0.1826
v 1.6073 0.8084 0.1606
v 1.5580 0.8084 0.1192
v 1.5258 0.8084 0.0634
v 1.5146 0.8084 0.0000
v 1.5258 0.8084 -0.0634
v 1.5580 0.8084 -0.1192
v 1.6073 0.8084 -0.1606
v 1.6678 0.8084 -0.1826
v 1.7322 0.8084 -0.1826
v 1.7927 0.8084 -0.1606
v 1.8420 0.8084 -0.1192
v 1.8742 0.8084 -0.0634
v 2.0527 0.6877 0.0000
v 2.0314 0.6877 0.1206
v 1.9702 0.6877 0.2267
v 1.8763 0.6877 0.3054
v 1.7612 0.6877 0.3473
v 1.6388 0.6877 0.3473
v 1.5237 0.6877 0.3054
v 1.4298 0.6877 0.2267
v 1.3686 0.6877 0.1206
v 1.3473 0.6877 0.0000
v 1.3686 0.6877 -0.1206
v 1.4298 0.6877 -0.2267
v 1.5237 0.6877 -0.3054
v 1.6388 0.6877 -0.3473
v 1.7612 0.6877 -0.3473
v 1.8763 0.6877 -0.3054
v 1.9702 0.6877 -0.2267
v 2.0314 0.6877 -0.1206
v 2.1854 0.4996 0.0000
v 2.1561 0.4996 0.1660
v 2.0718 0.4996 0.3120
v 1.9427 0.4996 0.4204
v 1.7843 0.4996 0.4780
v 1.6157 0.4996 0.4780
v 1.4573 0.4996 0.4204
v 1.3282 0.4996 0.3120
v 1.2439 0.4996 0.1660
v 1.2146 0.4996 0.0000
v 1.2439 0.4996 -0.1660
v 1.3282 0.4996 -0.3120
v 1.4573 0.4996 -0.4204
v 1.6157 0.4996 -0.4780
v 1.7843 0.4996 -0.4780
v 1.9427 0.4996 -0.4204
v 2.0718 0.4996 -0.3120
v 2.1561 0.4996 -0.1660
v 2.2706 0.2627 0.0000
v 2.2362 0.2627 0.1952
v 2.1371 0.2627 0.3668
v 1.9853 0.2627 0.4942
v 1.7991 0.2627 0.5620
v 1.6009 0.2627 0.5620
v 1.4147 0.2627 0.4942
v 1.2629 0.2627 0.3668
v 1.1638 0.2627 0.1952
v 1.1294 0.2627 0.0000
v 1.1638 0.2627 -0.1952
v 1.2629 0.2627 -0.3668
v 1.4147 0.2627 -0.4942
v 1.6009 0.2627 -0.5620
v 1.7991 0.2627 -0.5620
v 1.9853 0.2627 -0.4942
v 2.1371 0.2627 -0.3668
v 2.2362 0.2627 -0.1952
v 2.3000 0.0000 0.0000
v 2.2638 0.0000 0.2052
v 2.1596 0.0000 0.3857
v 2.0000 0.0000 0.5196
v 1.8042 0.0000 0.5909
v 1.5958 0.0000 0.5909
v 1.4000 0.0000 0.5196
v 1.2404 0.0000 0.3857
v 1.1362 0.0000 0.2052
v 1.1000 0.0000 0.0000
v 1.1362 0.0000 -0.2052
v 1.2404 0.0000 -0.3857
v 1.4000 0.0000 -0.5196
v 1.5958 0.0000 -0.5909
v 1.8042 0.0000 -0.5909
v 2.0000 0.0000 -0.5196
v 2.1596 0.0000 -0.3857
v 2.2638 0.0000 -0.2052
v 2.2706 -0.2627 0.0000
v 2.2362 -0.2627 0.1952
v 2.1371 -0.2627 0.3668
v 1.9853 -0.2627 0.4942
v 1.7991 -0.2627 0.5620
v 1.6009 -0.2627 0.5620
v 1.4147 -0.2627 0.4942
v 1.2629 -0.2627 0.3668
v 1.1638 -0.2627 0.1952
v 1.1294 -0.2627 0.0000
v 1.1638 -0.2627 -0.1952
v 1.2629 -0.2627 -0.3668
v 1.4147 -0.2627 -0.4942
v 1.6009 -0.2627 -0.5620
v 1.7991 -0.2627 -0.5620
v 1.9853 -0.2627 -0.4942
v 2.1371 -0.2627 -0.3668
v 2.2362 -0.2627 -0.1952
v 2.1854 -0.4996 0.0000
v 2.1561 -0.4996 0.1660
v 2.0718 -0.4996 0.3120
v 1.9427 -0.4996 0.4204
v 1.7843 -0.4996 0.4780
v 1.6157 -0.4996 0.4780
v 1.4573 -0.4996 0.4204
v 1.3282 -0.4996 0.3120
v 1.2439 -0.4996 0.1660
v 1.2146 -0.4996 0.0000
v 1.2439 -0.4996 -0.1660
v 1.3282 -0.4996 -0.3120
v 1.4573 -0.4996 -0.4204
v 1.6157 -0.4996 -0.4780
v 1.7843 -0.4996 -0.4780
v 1.9427 -0.4996 -0.4204
v 2.0718 -0.4996 -0.3120
v 2.1561 -0.4996 -0.1660
v 2.0527 -0.6877 0.0000
v 2.0314 -0.6877 0.1206
v 1.9702 -0.6877 0.2267
v 1.8763 -0.6877 0.3054
v 1.7612 -0.6877 0.3473
v 1.6388 -0.6877 0.3473
v 1.5237 -0.6877 0.3054
v 1.4298 -0.6877 0.2267
v 1.3686 -0.6877 0.1206
v 1.3473 -0.6877 0.0000
v 1.3686 -0.6877 -0.1206
v 1.4298 -0.6877 -0.2267
v 1.5237 -0.6877 -0.3054
v 1.6388 -0.6877 -0.3473
v 1.7612 -0.6877 -0.3473
v 1.8763 -0.6877 -0.3054
v 1.9702 -0.6877 -0.2267
v 2.0314 -0.6877 -0.1206
v 1.8854 -0.8084 0.0000
v 1.8742 -0.8084 0.0634
v 1.8420 -0.8084 0.1192
v 1.7927 -0.8084 0.1606
v 1.7322 -0.8084 0.1826
v 1.6678 -0.8084 0.1826
v 1.6073 -0.8084 0.1606
v 1.5580 -0.8084 0.1192
v 1.5258 -0.8084 0.0634
v 1.5146 -0.8084 0.0000
v 1.5258 -0.8084 -0.0634
v 1.5580 -0.8084 -0.1192
v 1.6073 -0.8084 -0.1606
v 1.6678 -0.8084 -0.1826
v 1.7322 -0.8084 -0.1826
v 1.7927 -0.8084 -0.1606
v 1.8420 -0.8084 -0.1192
v 1.8742 -0.8084 -0.0634
v 1.7000 -0.8500 0.0000
v 1.7000 -0.8500 0.0000
v 1.7000 -0.8500 0.0000
v 1.7000 -0.8500 0.0000
v 1.7000 -0.8500 0.0000
v 1.7000 -0.8500 0.0000
v 1.7000 -0.8500 0.0000
v 1.7000 -0.8500 0.0000
v 1.7000 -0.8500 0.0000
v 1.7000 -0.8500 0.0000
v 1.7000 -0.8500 -0.0000
v 1.7000 -0.8500 -0.0000
v 1.7000 -0.8500 -0.0000
v 1.7000 -0.8500 -0.0000
v 1.7000 -0.8500 -0.0000
v 1.7000 -0.8500 -0.0000
v 1.7000 -0.8500 -0.0000
v 1.7000 -0.8500 -0.0000
vn 1.0000 0.0000 0.0000
vn 0.9511 0.0000 0.3090
vn 0.8090 0.0000 0.5878
vn 0.5878 0.0000 0.8090
vn 0.3090 0.0000 0.9511
vn 0.0000 0.0000 1.0000
vn -0.3090 0.0000 0.9511
vn -0.5878 0.0000 0.8090
vn -0.8090 0.0000 0.5878
vn -0.9511 0.0000 0.3090
vn -1.0000 0.0000 0.0000
vn -0.9511 0.0000 -0.3090
vn -0.8090 0.0000 -0.5878
vn -0.5878 0.0000 -0.8090
vn -0.3090 0.0000 -0.9511
vn -0.0000 0.0000 -1.0000
vn 0.3090 0.0000 -0.9511
vn 0.5878 0.0000 -0.8090
vn 0.8090 0.0000 -0.5878
vn 0.9511 0.0000 -0.3090
vn 1.0000 0.0000 0.0000
vn 0.9511 0.0000 0.3090
vn 0.8090 0.0000 0.5878
vn 0.5878 0.0000 0.8090
vn 0.3090 0.0000 0.9511
vn 0.0000 0.0000 1.0000
vn -0.3090 0.0000 0.9511
vn -0.5878 0.0000 0.8090
vn -0.8090 0.0000 0.5878
vn -0.9511 0.0000 0.3090
vn -1.0000 0.0000 0.0000
vn -0.9511 0.0000 -0.3090
vn -0.8090 0.0000 -0.5878
vn -0.5878 0.0000 -0.8090
vn -0.3090 0.0000 -0.9511
vn -0.0000 0.0000 -1.0000
vn 0.3090 0.0000 -0.9511
vn 0.5878 0.0000 -0.8090
vn 0.8090 0.0000 -0.5878
vn 0.9511 0.0000 -0.3090
vn 0.0000 1.0000 0.0000
vn 0.0000 1.0000 0.0000
vn 0.0000 1.0000 0.0000
vn 0.0000 1.0000 0.0000
vn 0.0000 1.0000 0.0000
vn 0.0000 1.0000 0.0000
vn 0.0000 1.0000 0.0000
vn 0.0000 1.0000 0.0000
vn 0.0000 1.0000 0.0000
vn 0.0000 1.0000 0.0000
vn 0.0000 1.0000 0.0000
vn 0.0000 1.0000 0.0000
vn 0.0000 1.0000 0.0000
vn 0.0000 1.0000 0.0000
vn 0.0000 1.0000 0.0000
vn 0.0000 1.0000 0.0000
vn 0.0000 1.0000 0.0000
vn 0.0000 1.0000 0.0000
vn 0.3090 0.9511 0.0000
vn 0.2904 0.9511 0.1057
vn 0.2367 0.9511 0.1986
vn 0.1545 0.9511 0.2676
vn 0.0537 0.9511 0.3043
vn -0.0537 0.9511 0.3043
vn -0.1545 0.9511 0.2676
vn -0.2367 0.9511 0.1986
vn -0.2904 0.9511 0.1057
vn -0.3090 0.9511 0.0000
vn -0.2904 0.9511 -0.1057
vn -0.2367 0.9511 -0.1986
vn -0.1545 0.9511 -0.2676
vn -0.0537 0.9511 -0.3043
vn 0.0537 0.9511 -0.3043
vn 0.1545 0.9511 -0.2676
vn 0.2367 0.9511 -0.1986
vn 0.2904 0.9511 -0.1057
vn 0.5878 0.8090 0.0000
vn 0.5523 0.8090 0.2010
vn 0.4503 0.8090 0.3778
vn 0.2939 0.8090 0.5090
vn 0.1021 0.8090 0.5789
vn -0.1021 0.8090 0.5789
vn -0.2939 0.8090 0.5090
vn -0.4503 0.8090 0.3778
vn -0.5523 0.8090 0.2010
vn -0.5878 0.8090 0.0000
vn -0.5523 0.8090 -0.2010
vn -0.4503 0.8090 -0.3778
vn -0.2939 0.8090 -0.5090
vn -0.1021 0.8090 -0.5789
vn 0.1021 0.8090 -0.5789
vn 0.2939 0.8090 -0.5090
vn 0.4503 0.8090 -0.3778
vn 0.5523 0.8090 -0.2010
vn 0.8090 0.5878 0.0000
vn 0.7602 0.5878 0.2767
vn 0.6197 0.5878 0.5200
vn 0.4045 0.5878 0.7006
vn 0.1405 0.5878 0.7967
vn -0.1405 0.5878 0.7967
vn -0.4045 0.5878 0.7006
vn -0.6197 0.5878 0.5200
vn -0.7602 0.5878 0.2767
vn -0.8090 0.5878 0.0000
vn -0.7602 0.5878 -0.2767
vn -0.6197 0.5878 -0.5200
vn -0.4045 0.5878 -0.7006
vn -0.1405 0.5878 -0.7967
vn 0.1405 0.5878 -0.7967
vn 0.4045 0.5878 -0.7006
vn 0.6197 0.5878 -0.5200
vn 0.7602 0.5878 -0.2767
vn 0.9511 0.3090 0.0000
vn 0.8937 0.3090 0.3253
vn 0.7286 0.3090 0.6113
vn 0.4755 0.3090 0.8236
vn 0.1651 0.3090 0.9366
vn -0.1651 0.3090 0.9366
vn -0.4755 0.3090 0.8236
vn -0.7286 0.3090 0.6113
vn -0.8937 0.3090 0.3253
vn -0.9511 0.3090 0.0000
vn -0.8937 0.3090 -0.3253
vn -0.7286 0.3090 -0.6113
vn -0.4755 0.3090 -0.8236
vn -0.1651 0.3090 -0.9366
vn 0.1651 0.3090 -0.9366
vn 0.4755 0.3090 -0.8236
vn 0.7286 0.3090 -0.6113
vn 0.8937 0.3090 -0.3253
vn 1.0000 0.0000 0.0000
vn 0.9397 0.0000 0.3420
vn 0.7660 0.0000 0.6428
vn 0.5000 0.0000 0.8660
vn 0.1736 0.0000 0.9848
vn -0.1736 0.0000 0.9848
vn -0.5000 0.0000 0.8660
vn -0.7660 0.0000 0.6428
vn -0.9397 0.0000 0.3420
vn -1.0000 0.0000 0.0000
vn -0.9397 0.0000 -0.3420
vn -0.7660 0.0000 -0.6428
vn -0.5000 0.0000 -0.8660
vn -0.1736 0.0000 -0.9848
vn 0.1736 0.0000 -0.9848
vn 0.5000 0.0000 -0.8660
vn 0.7660 0.0000 -0.6428
vn 0.9397 0.0000 -0.3420
vn 0.9511 -0.3090 0.0000
vn 0.8937 -0.3090 0.3253
vn 0.7286 -0.3090 0.6113
vn 0.4755 -0.3090 0.8236
vn 0.1651 -0.3090 0.9366
vn -0.1651 -0.3090 0.9366
vn -0.4755 -0.3090 0.8236
vn -0.7286 -0.3090 0.6113
vn -0.8937 -0.3090 0.3253
vn -0.9511 -0.3090 0.0000
vn -0.8937 -0.3090 -0.3253
vn -0.7286 -0.3090 -0.6113
vn -0.4755 -0.3090 -0.8236
vn -0.1651 -0.3090 -0.9366
vn 0.1651 -0.3090 -0.9366
vn 0.4755 -0.3090 -0.8236
vn 0.7286 -0.3090 -0.6113
vn 0.8937 -0.3090 -0.3253
vn 0.8090 -0.5878 0.0000
vn 0.7602 -0.5878 0.2767
vn 0.6197 -0.5878 0.5200
vn 0.4045 -0.5878 0.7006
vn 0.1405 -0.5878 0.7967
vn -0.1405 -0.5878 0.7967
vn -0.4045 -0.5878 0.7006
vn -0.6197 -0.5878 0.5200
vn -0.7602 -0.5878 0.2767
vn -0.8090 -0.5878 0.0000
vn -0.7602 -0.5878 -0.2767
vn -0.6197 -0.5878 -0.5200
vn -0.4045 -0.5878 -0.7006
vn -0.1405 -0.5878 -0.7967
vn 0.1405 -0.5878 -0.7967
vn 0.4045 -0.5878 -0.7006
vn 0.6197 -0.5878 -0.5200
vn 0.7602 -0.5878 -0.2767
vn 0.5878 -0.8090 0.0000
vn 0.5523 -0.8090 0.2010
vn 0.4503 -0.8090 0.3778
vn 0.2939 -0.8090 0.5090
vn 0.1021 -0.8090 0.5789
vn -0.1021 -0.8090 0.5789
vn -0.2939 -0.8090 0.5090
vn -0.4503 -0.8090 0.3778
vn -0.5523 -0.8090 0.2010
vn -0.5878 -0.8090 0.0000
vn -0.5523 -0.8090 -0.2010
vn -0.4503 -0.8090 -0.3778
vn -0.2939 -0.8090 -0.5090
vn -0.1021 -0.8090 -0.5789
vn 0.1021 -0.8090 -0.5789
vn 0.2939 -0.8090 -0.5090
vn 0.4503 -0.8090 -0.3778
vn 0.5523 -0.8090 -0.2010
vn 0.3090 -0.9511 0.0000
vn 0.2904 -0.9511 0.1057
vn 0.2367 -0.9511 0.1986
vn 0.1545 -0.9511 0.2676
vn 0.0537 -0.9511 0.3043
vn -0.0537 -0.9511 0.3043
vn -0.1545 -0.9511 0.2676
vn -0.2367 -0.9511 0.1986
vn -0.2904 -0.9511 0.1057
vn -0.3090 -0.9511 0.0000
vn -0.2904 -0.9511 -0.1057
vn -0.2367 -0.9511 -0.1986
vn -0.1545 -0.9511 -0.2676
vn -0.0537 -0.9511 -0.3043
vn 0.0537 -0.9511 -0.3043
vn 0.1545 -0.9511 -0.2676
vn 0.2367 -0.9511 -0.1986
vn 0.2904 -0.9511 -0.1057
vn 0.0000 -1.0000 0.0000
vn 0.0000 -1.0000 0.0000
vn 0.0000 -1.0000 0.0000
vn 0.0000 -1.0000 0.0000
vn 0.0000 -1.0000 0.0000
vn 0.0000 -1.0000 0.0000
vn 0.0000 -1.0000 0.0000
vn 0.0000 -1.0000 0.0000
vn 0.0000 -1.0000 0.0000
vn 0.0000 -1.0000 0.0000
vn 0.0000 -1.0000 -0.0000
vn 0.0000 -1.0000 -0.0000
vn 0.0000 -1.0000 -0.0000
vn 0.0000 -1.0000 -0.0000
vn 0.0000 -1.0000 -0.0000
vn 0.0000 -1.0000 -0.0000
vn 0.0000 -1.0000 -0.0000
vn 0.0000 -1.0000 -0.0000
vn 0.0000 1.0000 0.0000
vn 0.0000 1.0000 0.0000
vn 0.0000 1.0000 0.0000
vn 0.0000 1.0000 0.0000
vn 0.0000 1.0000 0.0000
vn 0.0000 1.0000 0.0000
vn 0.0000 1.0000 0.0000
vn 0.0000 1.0000 0.0000
vn 0.0000 1.0000 0.0000
vn 0.0000 1.0000 0.0000
vn 0.0000 1.0000 0.0000
vn 0.0000 1.0000 0.0000
vn 0.0000 1.0000 0.0000
vn 0.0000 1.0000 0.0000
vn 0.0000 1.0000 0.0000
vn 0.0000 1.0000 0.0000
vn 0.0000 1.0000 0.0000
vn 0.0000 1.0000 0.0000
vn 0.3090 0.9511 0.0000
vn 0.2904 0.9511 0.1057
vn 0.2367 0.9511 0.1986
vn 0.1545 0.9511 0.2676
vn 0.0537 0.9511 0.3043
vn -0.0537 0.9511 0.3043
vn -0.1545 0.9511 0.2676
vn -0.2367 0.9511 0.1986
vn -0.2904 0.9511 0.1057
vn -0.3090 0.9511 0.0000
vn -0.2904 0.9511 -0.1057
vn -0.2367 0.9511 -0.1986
vn -0.1545 0.9511 -0.2676
vn -0.0537 0.9511 -0.3043
vn 0.0537 0.9511 -0.3043
vn 0.1545 0.9511 -0.2676
vn 0.2367 0.9511 -0.1986
vn 0.2904 0.9511 -0.1057
vn 0.5878 0.8090 0.0000
vn 0.5523 0.8090 0.2010
vn 0.4503 0.8090 0.3778
vn 0.2939 0.8090 0.5090
vn 0.1021 0.8090 0.5789
vn -0.1021 0.8090 0.5789
vn -0.2939 0.8090 0.5090
vn -0.4503 0.8090 0.3778
vn -0.5523 0.8090 0.2010
vn -0.5878 0.8090 0.0000
vn -0.5523 0.8090 -0.2010
vn -0.4503 0.8090 -0.3778
vn -0.2939 0.8090 -0.5090
vn -0.1021 0.8090 -0.5789
vn 0.1021 0.8090 -0.5789
vn 0.2939 0.8090 -0.5090
vn 0.4503 0.8090 -0.3778
vn 0.5523 0.8090 -0.2010
vn 0.8090 0.5878 0.0000
vn 0.7602 0.5878 0.2767
vn 0.6197 0.5878 0.5200
vn 0.4045 0.5878 0.7006
vn 0.1405 0.5878 0.7967
vn -0.1405 0.5878 0.7967
vn -0.4045 0.5878 0.7006
vn -0.6197 0.5878 0.5200
vn -0.7602 0.5878 0.2767
vn -0.8090 0.5878 0.0000
vn -0.7602 0.5878 -0.2767
vn -0.6197 0.5878 -0.5200
vn -0.4045 0.5878 -0.7006
vn -0.1405 0.5878 -0.7967
vn 0.1405 0.5878 -0.7967
vn 0.4045 0.5878 -0.7006
vn 0.6197 0.5878 -0.5200
vn 0.7602 0.5878 -0.2767
vn 0.9511 0.3090 0.0000
vn 0.8937 0.3090 0.3253
vn 0.7286 0.3090 0.6113
vn 0.4755 0.3090 0.8236
vn 0.1651 0.3090 0.9366
vn -0.1651 0.3090 0.9366
vn -0.4755 0.3090 0.8236
vn -0.7286 0.3090 0.6113
vn -0.8937 0.3090 0.3253
vn -0.9511 0.3090 0.0000
vn -0.8937 0.3090 -0.3253
vn -0.7286 0.3090 -0.6113
vn -0.4755 0.3090 -0.8236
vn -0.1651 0.3090 -0.9366
vn 0.1651 0.3090 -0.9366
vn 0.4755 0.3090 -0.8236
vn 0.7286 0.3090 -0.6113
vn 0.8937 0.3090 -0.3253
vn 1.0000 0.0000 0.0000
vn 0.9397 0.0000 0.3420
vn 0.7660 0.0000 0.6428
vn 0.5000 0.0000 0.8660
vn 0.1736 0.0000 0.9848
vn -0.1736 0.0000 0.9848
vn -0.5000 0.0000 0.8660
vn -0.7660 0.0000 0.6428
vn -0.9397 0.0000 0.3420
vn -1.0000 0.0000 0.0000
vn -0.9397 0.0000 -0.3420
vn -0.7660 0.0000 -0.6428
vn -0.5000 0.0000 -0.8660
vn -0.1736 0.0000 -0.9848
vn 0.1736 0.0000 -0.9848
vn 0.5000 0.0000 -0.8660
vn 0.7660 0.0000 -0.6428
vn 0.9397 0.0000 -0.3420
vn 0.9511 -0.3090 0.0000
vn 0.8937 -0.3090 0.3253
vn 0.7286 -0.3090 0.6113
vn 0.4755 -0.3090 0.8236
vn 0.1651 -0.3090 0.9366
vn -0.1651 -0.3090 0.9366
vn -0.4755 -0.3090 0.8236
vn -0.7286 -0.3090 0.6113
vn -0.8937 -0.3090 0.3253
vn -0.9511 -0.3090 0.0000
vn -0.8937 -0.3090 -0.3253
vn -0.7286 -0.3090 -0.6113
vn -0.4755 -0.3090 -0.8236
vn -0.1651 -0.3090 -0.9366
vn 0.1651 -0.3090 -0.9366
vn 0.4755 -0.3090 -0.8236
vn 0.7286 -0.3090 -0.6113
vn 0.8937 -0.3090 -0.3253
vn 0.8090 -0.5878 0.0000
vn 0.7602 -0.5878 0.2767
vn 0.6197 -0.5878 0.5200
vn 0.4045 -0.5878 0.7006
vn 0.1405 -0.5878 0.7967
vn -0.1405 -0.5878 0.7967
vn -0.4045 -0.5878 0.7006
vn -0.6197 -0.5878 0.5200
vn -0.7602 -0.5878 0.2767
vn -0.8090 -0.5878 0.0000
vn -0.7602 -0.5878 -0.2767
vn -0.6197 -0.5878 -0.5200
vn -0.4045 -0.5878 -0.7006
vn -0.1405 -0.5878 -0.7967
vn 0.1405 -0.5878 -0.7967
vn 0.4045 -0.5878 -0.7006
vn 0.6197 -0.5878 -0.5200
vn 0.7602 -0.5878 -0.2767
vn 0.5878 -0.8090 0.0000
vn 0.5523 -0.8090 0.2010
vn 0.4503 -0.8090 0.3778
vn 0.2939 -0.8090 0.5090
vn 0.1021 -0.8090 0.5789
vn -0.1021 -0.8090 0.5789
vn -0.2939 -0.8090 0.5090
vn -0.4503 -0.8090 0.3778
vn -0.5523 -0.8090 0.2010
vn -0.5878 -0.8090 0.0000
vn -0.5523 -0.8090 -0.2010
vn -0.4503 -0.8090 -0.3778
vn -0.2939 -0.8090 -0.5090
vn -0.1021 -0.8090 -0.5789
vn 0.1021 -0.8090 -0.5789
vn 0.2939 -0.8090 -0.5090
vn 0.4503 -0.8090 -0.3778
vn 0.5523 -0.8090 -0.2010
vn 0.3090 -0.9511 0.0000
vn 0.2904 -0.9511 0.1057
vn 0.2367 -0.9511 0.1986
vn 0.1545 -0.9511 0.2676
vn 0.0537 -0.9511 0.3043
vn -0.0537 -0.9511 0.3043
vn -0.1545 -0.9511 0.2676
vn -0.2367 -0.9511 0.1986
vn -0.2904 -0.9511 0.1057
vn -0.3090 -0.9511 0.0000
vn -0.2904 -0.9511 -0.1057
vn -0.2367 -0.9511 -0.1986
vn -0.1545 -0.9511 -0.2676
vn -0.0537 -0.9511 -0.3043
vn 0.0537 -0.9511 -0.3043
vn 0.1545 -0.9511 -0.2676
vn 0.2367 -0.9511 -0.1986
vn 0.2904 -0.9511 -0.1057
vn 0.0000 -1.0000 0.0000
vn 0.0000 -1.0000 0.0000
vn 0.0000 -1.0000 0.0000
vn 0.0000 -1.0000 0.0000
vn 0.0000 -1.0000 0.0000
vn 0.0000 -1.0000 0.0000
vn 0.0000 -1.0000 0.0000
vn 0.0000 -1.0000 0.0000
vn 0.0000 -1.0000 0.0000
vn 0.0000 -1.0000 0.0000
vn 0.0000 -1.0000 -0.0000
vn 0.0000 -1.0000 -0.0000
vn 0.0000 -1.0000 -0.0000
vn 0.0000 -1.0000 -0.0000
vn 0.0000 -1.0000 -0.0000
vn 0.0000 -1.0000 -0.0000
vn 0.0000 -1.0000 -0.0000
vn 0.0000 -1.0000 -0.0000
f 1//1 2//2 22//22 21//21
f 2//2 3//3 23//23 22//22
f 3//3 4//4 24//24 23//23
f 4//4 5//5 25//25 24//24
f 5//5 6//6 26//26 25//25
f 6//6 7//7 27//27 26//26
f 7//7 8//8 28//28 27//27
f 8//8 9//9 29//29 28//28
f 9//9 10//10 30//30 29//29
f 10//10 11//11 31//31 30//30
f 11//11 12//12 32//32 31//31
f 12//12 13//13 33//33 32//32
f 13//13 14//14 34//34 33//33
f 14//14 15//15 35//35 34//34
f 15//15 16//16 36//36 35//35
f 16//16 17//17 37//37 36//36
f 17//17 18//18 38//38 37//37
f 18//18 19//19 39//39 38//38
f 19//19 20//20 40//40 39//39
f 20//20 1//1 21//21 40//40
f 41//41 42//42 60//60 59//59
f 42//42 43//43 61//61 60//60
f 43//43 44//44 62//62 61//61
f 44//44 45//45 63//63 62//62
f 45//45 46//46 64//64 63//63
f 46//46 47//47 65//65 64//64
f 47//47 48//48 66//66 65//65
f 48//48 49//49 67//67 66//66
f 49//49 50//50 68//68 67//67
f 50//50 51//51 69//69 68//68
f 51//51 52//52 70//70 69//69
f 52//52 53//53 71//71 70//70
f 53//53 54//54 72//72 71//71
f 54//54 55//55 73//73 72//72
f 55//55 56//56 74//74 73//73
f 56//56 57//57 75//75 74//74
f 57//57 58//58 76//76 75//75
f 58//58 41//41 59//59 76//76
f 59//59 60//60 78//78 77//77
f 60//60 61//61 79//79 78//78
f 61//61 62//62 80//80 79//79
f 62//62 63//63 81//81 80//80
f 63//63 64//64 82//82 81//81
f 64//64 65//65 83//83 82//82
f 65//65 66//66 84//84 83//83
f 66//66 67//67 85//85 84//84
f 67//67 68//68 86//86 85//85
f 68//68 69//69 87//87 86//86
f 69//69 70//70 88//88 87//87
f 70//70 71//71 89//89 88//88
f 71//71 72//72 90//90 89//89
f 72//72 73//73 91//91 90//90
f 73//73 74//74 92//92 91//91
f 74//74 75//75 93//93 92//92
f 75//75 76//76 94//94 93//93
f 76//76 59//59 77//77 94//94
f 77//77 78//78 96//96 95//95
f 78//78 79//79 97//97 96//96
f 79//79 80//80 98//98 97//97
f 80//80 81//81 99//99 98//98
f 81//81 82//82 100//100 99//99
f 82//82 83//83 101//101 100//100
f 83//83 84//84 102//102 101//101
f 84//84 85//85 103//103 102//102
f 85//85 86//86 104//104 103//103
f 86//86 87//87 105//105 104//104
f 87//87 88//88 106//106 105//105
f 88//88 89//89 107//107 106//106
f 89//89 90//90 108//108 107//107
f 90//90 91//91 109//109 108//108
f 91//91 92//92 110//110 109//109
f 92//92 93//93 111//111 110//110
f 93//93 94//94 112//112 111//111
f 94//94 77//77 95//95 112//112
f 95//95 96//96 114//114 113//113
f 96//96 97//97 115//115 114//114
f 97//97 98//98 116//116 115//115
f 98//98 99//99 117//117 116//116
f 99//99 100//100 118//118 117//117
f 100//100 101//101 119//119 118//118
f 101//101 102//102 120//120 119//119
f 102//102 103//103 121//121 120//120
f 103//103 104//104 122//122 121//121
f 104//104 105//105 123//123 122//122
f 105//105 106//106 124//124 123//123
f 106//106 107//107 125//125 124//124
f 107//107 108//108 126//126 125//125
f 108//108 109//109 127//127 126//126
f 109//109 110//110 128//128 127//127
f 110//110 111//111 129//129 128//128
f 111//111 112//112 130//130 129//129
f 112//112 95//95 113//113 130//130
f 113//113 114//114 132//132 131//131
f 114//114 115//115 133//133 132//132
f 115//115 116//116 134//134 133//133
f 116//116 117//117 135//135 134//134
f 117//117 118//118 136//136 135//135
f 118//118 119//119 137//137 136//136
f 119//119 120//120 138//138 137//137
f 120//120 121//121 139//139 138//138
f 121//121 122//122 140//140 139//139
f 122//122 123//123 141//141 140//140
f 123//123 124//124 142//142 141//141
f 124//124 125//125 143//143 142//142
f 125//125 126//126 144//144 143//143
f 126//126 127//127 145//145 144//144
f 127//127 128//128 146//146 145//145
f 128//128 129//129 147//147 146//146
f 129//129 130//130 148//148 147//147
f 130//130 113//113 131//131 148//148
f 131//131 132//132 150//150 149//149
f 132//132 133//133 151//151 150//150
f 133//133 134//134 152//152 151//151
f 134//134 135//135 153//153 152//152
f 135//135 136//136 154//154 153//153
f 136//136 137//137 155//155 154//154
f 137//137 138//138 156//156 155//155
f 138//138 139//139 157//157 156//156
f 139//139 140//140 158//158 157//157
f 140//140 141//141 159//159 158//158
f 141//141 142//142 160//160 159//159
f 142//142 143//143 161//161 160//160
f 143//143 144//144 162//162 161//161
f 144//144 145//145 163//163 162//162
f 145//145 146//146 164//164 163//163
f 146//146 147//147 165//165 164//164
f 147//147 148//148 166//166 165//165
f 148//148 131//131 149//149 166//166
f 149//149 150//150 168//168 167//167
f 150//150 151//151 169//169 168//168
f 151//151 152//152 170//170 169//169
f 152//152 153//153 171//171 170//170
f 153//153 154//154 172//172 171//171
f 154//154 155//155 173//173 172//172
f 155//155 156//156 174//174 173//173
f 156//156 157//157 175//175 174//174
f 157//157 158//158 176//176 175//175
f 158//158 159//159 177//177 176//176
f 159//159 160//160 178//178 177//177
f 160//160 161//161 179//179 178//178
f 161//161 162//162 180//180 179//179
f 162//162 163//163 181//181 180//180
f 163//163 164//164 182//182 181//181
f 164//164 165//165 183//183 182//182
f 165//165 166//166 184//184 183//183
f 166//166 149//149 167//167 184//184
f 167//167 168//168 186//186 185//185
f 168//168 169//169 187//187 186//186
f 169//169 170//170 188//188 187//187
f 170//170 171//171 189//189 188//188
f 171//171 172//172 190//190 189//189
f 172//172 173//173 191//191 190//190
f 173//173 174//174 192//192 191//191
f 174//174 175//175 193//193 192//192
f 175//175 176//176 194//194 193//193
f 176//176 177//177 195//195 194//194
f 177//177 178//178 196//196 195//195
f 178//178 179//179 197//197 196//196
f 179//179 180//180 198//198 197//197
f 180//180 181//181 199//199 198//198
f 181//181 182//182 200//200 199//199
f 182//182 183//183 201//201 200//200
f 183//183 184//184 202//202 201//201
f 184//184 167//167 185//185 202//202
f 185//185 186//186 204//204 203//203
f 186//186 187//187 205//205 204//204
f 187//187 188//188 206//206 205//205
f 188//188 189//189 207//207 206//206
f 189//189 190//190 208//208 207//207
f 190//190 191//191 209//209 208//208
f 191//191 192//192 210//210 209//209
f 192//192 193//193 211//211 210//210
f 193//193 194//194 212//212 211//211
f 194//194 195//195 213//213 212//212
f 195//195 196//196 214//214 213//213
f 196//196 197//197 215//215 214//214
f 197//197 198//198 216//216 215//215
f 198//198 199//199 217//217 216//216
f 199//199 200//200 218//218 217//217
f 200//200 201//201 219//219 218//218
f 201//201 202//202 220//220 219//219
f 202//202 185//185 203//203 220//220
f 203//203 204//204 222//222 221//221
f 204//204 205//205 223//223 222//222
f 205//205 206//206 224//224 223//223
f 206//206 207//207 225//225 224//224
f 207//207 208//208 226//226 225//225
f 208//208 209//209 227//227 226//226
f 209//209 210//210 228//228 227//227
f 210//210 211//211 229//229 228//228
f 211//211 212//212 230//230 229//229
f 212//212 213//213 231//231 230//230
f 213//213 214//214 232//232 231//231
f 214//214 215//215 233//233 232//232
f 215//215 216//216 234//234 233//233
f 216//216 217//217 235//235 234//234
f 217//217 218//218 236//236 235//235
f 218//218 219//219 237//237 236//236
f 219//219 220//220 238//238 237//237
f 220//220 203//203 221//221 238//238
f 239//239 240//240 258//258 257//257
f 240//240 241//241 259//259 258//258
f 241//241 242//242 260//260 259//259
f 242//242 243//243 261//261 260//260
f 243//243 244//244 262//262 261//261
f 244//244 245//245 263//263 262//262
f 245//245 246//246 264//264 263//263
f 246//246 247//247 265//265 264//264
f 247//247 248//248 266//266 265//265
f 248//248 249//249 267//267 266//266
f 249//249 250//250 268//268 267//267
f 250//250 251//251 269//269 268//268
f 251//251 252//252 270//270 269//269
f 252//252 253//253 271//271 270//270
f 253//253 254//254 272//272 271//271
f 254//254 255//255 273//273 272//272
f 255//255 256//256 274//274 273//273
f 256//256 239//239 257//257 274//274
f 257//257 258//258 276//276 275//275
f 258//258 259//259 277//277 276//276
f 259//259 260//260 278//278 277//277
f 260//260 261//261 279//279 278//278
f 261//261 262//262 280//280 279//279
f 262//262 263//263 281//281 280//280
f 263//263 264//264 282//282 281//281
f 264//264 265//265 283//283 282//282
f 265//265 266//266 284//284 283//283
f 266//266 267//267 285//285 284//284
f 267//267 268//268 286//286 285//285
f 268//268 269//269 287//287 286//286
f 269//269 270//270 288//288 287//287
f 270//270 271//271 289//289 288//288
f 271//271 272//272 290//290 289//289
f 272//272 273//273 291//291 290//290
f 273//273 274//274 292//292 291//291
f 274//274 257//257 275//275 292//292
f 275//275 276//276 294//294 293//293
f 276//276 277//277 295//295 294//294
f 277//277 278//278 296//296 295//295
f 278//278 279//279 297//297 296//296
f 279//279 280//280 298//298 297//297
f 280//280 281//281 299//299 298//298
f 281//281 282//282 300//300 299//299
f 282//282 283//283 301//301 300//300
f 283//283 284//284 302//302 301//301
f 284//284 285//285 303//303 302//302
f 285//285 286//286 304//304 303//303
f 286//286 287//287 305//305 304//304
f 287//287 288//288 306//306 305//305
f 288//288 289//289 307//307 306//306
f 289//289 290//290 308//308 307//307
f 290//290 291//291 309//309 308//308
f 291//291 292//292 310//310 309//309
f 292//292 275//275 293//293 310//310
f 293//293 294//294 312//312 311//311
f 294//294 295//295 313//313 312//312
f 295//295 296//296 314//314 313//313
f 296//296 297//297 315//315 314//314
f 297//297 298//298 316//316 315//315
f 298//298 299//299 317//317 316//316
f 299//299 300//300 318//318 317//317
f 300//300 301//301 319//319 318//318
f 301//301 302//302 320//320 319//319
f 302//302 303//303 321//321 320//320
f 303//303 304//304 322//322 321//321
f 304//304 305//305 323//323 322//322
f 305//305 306//306 324//324 323//323
f 306//306 307//307 325//325 324//324
f 307//307 308//308 326//326 325//325
f 308//308 309//309 327//327 326//326
f 309//309 310//310 328//328 327//327
f 310//310 293//293 311//311 328//328
f 311//311 312//312 330//330 329//329
f 312//312 313//313 331//331 330//330
f 313//313 314//314 332//332 331//331
f 314//314 315//315 333//333 332//332
f 315//315 316//316 334//334 333//333
f 316//316 317//317 335//335 334//334
f 317//317 318//318 336//336 335//335
f 318//318 319//319 337//337 336//336
f 319//319 320//320 338//338 337//337
f 320//320 321//321 339//339 338//338
f 321//321 322//322 340//340 339//339
f 322//322 323//323 341//341 340//340
f 323//323 324//324 342//342 341//341
f 324//324 325//325 343//343 342//342
f 325//325 326//326 344//344 343//343
f 326//326 327//327 345//345 344//344
f 327//327 328//328 346//346 345//345
f 328//328 311//311 329//329 346//346
f 329//329 330//330 348//348 347//347
f 330//330 331//331 349//349 348//348
f 331//331 332//332 350//350 349//349
f 332//332 333//333 351//351 350//350
f 333//333 334//334 352//352 351//351
f 334//334 335//335 353//353 352//352
f 335//335 336//336 354//354 353//353
f 336//336 337//337 355//355 354//354
f 337//337 338//338 356//356 355//355
f 338//338 339//339 357//357 356//356
f 339//339 340//340 358//358 357//357
f 340//340 341//341 359//359 358//358
f 341//341 342//342 360//360 359//359
f 342//342 343//343 361//361 360//360
f 343//343 344//344 362//362 361//361
f 344//344 345//345 363//363 362//362
f 345//345 346//346 364//364 363//363
f 346//346 329//329 347//347 364//364
f 347//347 348//348 366//366 365//365
f 348//348 349//349 367//367 366//366
f 349//349 350//350 368//368 367//367
f 350//350 351//351 369//369 368//368
f 351//351 352//352 370//370 369//369
f 352//352 353//353 371//371 370//370
f 353//353 354//354 372//372 371//371
f 354//354 355//355 373//373 372//372
f 355//355 356//356 374//374 373//373
f 356//356 357//357 375//375 374//374
f 357//357 358//358 376//376 375//375
f 358//358 359//359 377//377 376//376
f 359//359 360//360 378//378 377//377
f 360//360 361//361 379//379 378//378
f 361//361 362//362 380//380 379//379
f 362//362 363//363 381//381 380//380
f 363//363 364//364 382//382 381//381
f 364//364 347//347 365//365 382//382
f 365//365 366//366 384//384 383//383
f 366//366 367//367 385//385 384//384
f 367//367 368//368 386//386 385//385
f 368//368 369//369 387//387 386//386
f 369//369 370//370 388//388 387//387
f 370//370 371//371 389//389 388//388
f 371//371 372//372 390//390 389//389
f 372//372 373//373 391//391 390//390
f 373//373 374//374 392//392 391//391
f 374//374 375//375 393//393 392//392
f 375//375 376//376 394//394 393//393
f 376//376 377//377 395//395 394//394
f 377//377 378//378 396//396 395//395
f 378//378 379//379 397//397 396//396
f 379//379 380//380 398//398 397//397
f 380//380 381//381 399//399 398//398
f 381//381 382//382 400//400 399//399
f 382//382 365//365 383//383 400//400
f 383//383 384//384 402//402 401//401
f 384//384 385//385 403//403 402//402
f 385//385 386//386 404//404 403//403
f 386//386 387//387 405//405 404//404
f 387//387 388//388 406//406 405//405
f 388//388 389//389 407//407 406//406
f 389//389 390//390 408//408 407//407
f 390//390 391//391 409//409 408//408
f 391//391 392//392 410//410 409//409
f 392//392 393//393 411//411 410//410
f 393//393 394//394 412//412 411//411
f 394//394 395//395 413//413 412//412
f 395//395 396//396 414//414 413//413
f 396//396 397//397 415//415 414//414
f 397//397 398//398 416//416 415//415
f 398//398 399//399 417//417 416//416
f 399//399 400//400 418//418 417//417
f 400//400 383//383 401//401 418//418
f 401//401 402//402 420//420 419//419
f 402//402 403//403 421//421 420//420
f 403//403 404//404 422//422 421//421
f 404//404 405//405 423//423 422//422
f 405//405 406//406 424//424 423//423
f 406//406 407//407 425//425 424//424
f 407//407 408//408 426//426 425//425
f 408//408 409//409 427//427 426//426
f 409//409 410//410 428//428 427//427
f 410//410 411//411 429//429 428//428
f 411//411 412//412 430//430 429//429
f 412//412 413//413 431//431 430//430
f 413//413 414//414 432//432 431//431
f 414//414 415//415 433//433 432//432
f 415//415 416//416 434//434 433//433
f 416//416 417//417 435//435 434//434
f 417//417 418//418 436//436 435//435
f 418//418 401//401 419//419 436//436
