# EASY Shapes Studio — modèle 3D : mouse
mtllib mouse.mtl
o mouse
usemtl mat_mouse
v 0.0000 1.6000 0.0000
v 0.0000 1.6000 0.0000
v 0.0000 1.6000 0.0000
v 0.0000 1.6000 0.0000
v 0.0000 1.6000 0.0000
v 0.0000 1.6000 0.0000
v 0.0000 1.6000 0.0000
v 0.0000 1.6000 0.0000
v 0.0000 1.6000 0.0000
v 0.0000 1.6000 0.0000
v 0.0000 1.6000 0.0000
v 0.0000 1.6000 0.0000
v 0.0000 1.6000 0.0000
v 0.0000 1.6000 0.0000
v 0.0000 1.6000 0.0000
v 0.0000 1.6000 0.0000
v 0.0000 1.6000 0.0000
v 0.0000 1.6000 0.0000
v 0.0000 1.6000 0.0000
v 0.0000 1.6000 0.0000
v 0.2847 1.5455 0.0000
v 0.2708 1.5455 0.1840
v 0.2303 1.5455 0.3499
v 0.1673 1.5455 0.4816
v 0.0880 1.5455 0.5661
v 0.0000 1.5455 0.5953
v -0.0880 1.5455 0.5661
v -0.1673 1.5455 0.4816
v -0.2303 1.5455 0.3499
v -0.2708 1.5455 0.1840
v -0.2847 1.5455 0.0000
v -0.2708 1.5455 -0.1840
v -0.2303 1.5455 -0.3499
v -0.1673 1.5455 -0.4816
v -0.0880 1.5455 -0.5661
v -0.0000 1.5455 -0.5953
v 0.0880 1.5455 -0.5661
v 0.1673 1.5455 -0.4816
v 0.2303 1.5455 -0.3499
v 0.2708 1.5455 -0.1840
v 0.5500 1.3856 0.0000
v 0.5231 1.3856 0.3554
v 0.4450 1.3856 0.6760
v 0.3233 1.3856 0.9304
v 0.1700 1.3856 1.0937
v 0.0000 1.3856 1.1500
v -0.1700 1.3856 1.0937
v -0.3233 1.3856 0.9304
v -0.4450 1.3856 0.6760
v -0.5231 1.3856 0.3554
v -0.5500 1.3856 0.0000
v -0.5231 1.3856 -0.3554
v -0.4450 1.3856 -0.6760
v -0.3233 1.3856 -0.9304
v -0.1700 1.3856 -1.0937
v -0.0000 1.3856 -1.1500
v 0.1700 1.3856 -1.0937
v 0.3233 1.3856 -0.9304
v 0.4450 1.3856 -0.6760
v 0.5231 1.3856 -0.3554
v 0.7778 1.1314 0.0000
v 0.7397 1.1314 0.5026
v 0.6293 1.1314 0.9559
v 0.4572 1.1314 1.3157
v 0.2404 1.1314 1.5467
v 0.0000 1.1314 1.6263
v -0.2404 1.1314 1.5467
v -0.4572 1.1314 1.3157
v -0.6293 1.1314 0.9559
v -0.7397 1.1314 0.5026
v -0.7778 1.1314 0.0000
v -0.7397 1.1314 -0.5026
v -0.6293 1.1314 -0.9559
v -0.4572 1.1314 -1.3157
v -0.2404 1.1314 -1.5467
v -0.0000 1.1314 -1.6263
v 0.2404 1.1314 -1.5467
v 0.4572 1.1314 -1.3157
v 0.6293 1.1314 -0.9559
v 0.7397 1.1314 -0.5026
v 0.9526 0.8000 0.0000
v 0.9060 0.8000 0.6155
v 0.7707 0.8000 1.1708
v 0.5599 0.8000 1.6114
v 0.2944 0.8000 1.8944
v 0.0000 0.8000 1.9919
v -0.2944 0.8000 1.8944
v -0.5599 0.8000 1.6114
v -0.7707 0.8000 1.1708
v -0.9060 0.8000 0.6155
v -0.9526 0.8000 0.0000
v -0.9060 0.8000 -0.6155
v -0.7707 0.8000 -1.1708
v -0.5599 0.8000 -1.6114
v -0.2944 0.8000 -1.8944
v -0.0000 0.8000 -1.9919
v 0.2944 0.8000 -1.8944
v 0.5599 0.8000 -1.6114
v 0.7707 0.8000 -1.1708
v 0.9060 0.8000 -0.6155
v 1.0625 0.4141 0.0000
v 1.0105 0.4141 0.6865
v 0.8596 0.4141 1.3058
v 0.6245 0.4141 1.7973
v 0.3283 0.4141 2.1129
v 0.0000 0.4141 2.2216
v -0.3283 0.4141 2.1129
v -0.6245 0.4141 1.7973
v -0.8596 0.4141 1.3058
v -1.0105 0.4141 0.6865
v -1.0625 0.4141 0.0000
v -1.0105 0.4141 -0.6865
v -0.8596 0.4141 -1.3058
v -0.6245 0.4141 -1.7973
v -0.3283 0.4141 -2.1129
v -0.0000 0.4141 -2.2216
v 0.3283 0.4141 -2.1129
v 0.6245 0.4141 -1.7973
v 0.8596 0.4141 -1.3058
v 1.0105 0.4141 -0.6865
v 1.1000 0.0000 0.0000
v 1.0462 0.0000 0.7107
v 0.8899 0.0000 1.3519
v 0.6466 0.0000 1.8607
v 0.3399 0.0000 2.1874
v 0.0000 0.0000 2.3000
v -0.3399 0.0000 2.1874
v -0.6466 0.0000 1.8607
v -0.8899 0.0000 1.3519
v -1.0462 0.0000 0.7107
v -1.1000 0.0000 0.0000
v -1.0462 0.0000 -0.7107
v -0.8899 0.0000 -1.3519
v -0.6466 0.0000 -1.8607
v -0.3399 0.0000 -2.1874
v -0.0000 0.0000 -2.3000
v 0.3399 0.0000 -2.1874
v 0.6466 0.0000 -1.8607
v 0.8899 0.0000 -1.3519
v 1.0462 0.0000 -0.7107
v 1.0625 -0.4141 0.0000
v 1.0105 -0.4141 0.6865
v 0.8596 -0.4141 1.3058
v 0.6245 -0.4141 1.7973
v 0.3283 -0.4141 2.1129
v 0.0000 -0.4141 2.2216
v -0.3283 -0.4141 2.1129
v -0.6245 -0.4141 1.7973
v -0.8596 -0.4141 1.3058
v -1.0105 -0.4141 0.6865
v -1.0625 -0.4141 0.0000
v -1.0105 -0.4141 -0.6865
v -0.8596 -0.4141 -1.3058
v -0.6245 -0.4141 -1.7973
v -0.3283 -0.4141 -2.1129
v -0.0000 -0.4141 -2.2216
v 0.3283 -0.4141 -2.1129
v 0.6245 -0.4141 -1.7973
v 0.8596 -0.4141 -1.3058
v 1.0105 -0.4141 -0.6865
v 0.9526 -0.8000 0.0000
v 0.9060 -0.8000 0.6155
v 0.7707 -0.8000 1.1708
v 0.5599 -0.8000 1.6114
v 0.2944 -0.8000 1.8944
v 0.0000 -0.8000 1.9919
v -0.2944 -0.8000 1.8944
v -0.5599 -0.8000 1.6114
v -0.7707 -0.8000 1.1708
v -0.9060 -0.8000 0.6155
v -0.9526 -0.8000 0.0000
v -0.9060 -0.8000 -0.6155
v -0.7707 -0.8000 -1.1708
v -0.5599 -0.8000 -1.6114
v -0.2944 -0.8000 -1.8944
v -0.0000 -0.8000 -1.9919
v 0.2944 -0.8000 -1.8944
v 0.5599 -0.8000 -1.6114
v 0.7707 -0.8000 -1.1708
v 0.9060 -0.8000 -0.6155
v 0.7778 -1.1314 0.0000
v 0.7397 -1.1314 0.5026
v 0.6293 -1.1314 0.9559
v 0.4572 -1.1314 1.3157
v 0.2404 -1.1314 1.5467
v 0.0000 -1.1314 1.6263
v -0.2404 -1.1314 1.5467
v -0.4572 -1.1314 1.3157
v -0.6293 -1.1314 0.9559
v -0.7397 -1.1314 0.5026
v -0.7778 -1.1314 0.0000
v -0.7397 -1.1314 -0.5026
v -0.6293 -1.1314 -0.9559
v -0.4572 -1.1314 -1.3157
v -0.2404 -1.1314 -1.5467
v -0.0000 -1.1314 -1.6263
v 0.2404 -1.1314 -1.5467
v 0.4572 -1.1314 -1.3157
v 0.6293 -1.1314 -0.9559
v 0.7397 -1.1314 -0.5026
v 0.5500 -1.3856 0.0000
v 0.5231 -1.3856 0.3554
v 0.4450 -1.3856 0.6760
v 0.3233 -1.3856 0.9304
v 0.1700 -1.3856 1.0937
v 0.0000 -1.3856 1.1500
v -0.1700 -1.3856 1.0937
v -0.3233 -1.3856 0.9304
v -0.4450 -1.3856 0.6760
v -0.5231 -1.3856 0.3554
v -0.5500 -1.3856 0.0000
v -0.5231 -1.3856 -0.3554
v -0.4450 -1.3856 -0.6760
v -0.3233 -1.3856 -0.9304
v -0.1700 -1.3856 -1.0937
v -0.0000 -1.3856 -1.1500
v 0.1700 -1.3856 -1.0937
v 0.3233 -1.3856 -0.9304
v 0.4450 -1.3856 -0.6760
v 0.5231 -1.3856 -0.3554
v 0.2847 -1.5455 0.0000
v 0.2708 -1.5455 0.1840
v 0.2303 -1.5455 0.3499
v 0.1673 -1.5455 0.4816
v 0.0880 -1.5455 0.5661
v 0.0000 -1.5455 0.5953
v -0.0880 -1.5455 0.5661
v -0.1673 -1.5455 0.4816
v -0.2303 -1.5455 0.3499
v -0.2708 -1.5455 0.1840
v -0.2847 -1.5455 0.0000
v -0.2708 -1.5455 -0.1840
v -0.2303 -1.5455 -0.3499
v -0.1673 -1.5455 -0.4816
v -0.0880 -1.5455 -0.5661
v -0.0000 -1.5455 -0.5953
v 0.0880 -1.5455 -0.5661
v 0.1673 -1.5455 -0.4816
v 0.2303 -1.5455 -0.3499
v 0.2708 -1.5455 -0.1840
v 0.0000 -1.6000 0.0000
v 0.0000 -1.6000 0.0000
v 0.0000 -1.6000 0.0000
v 0.0000 -1.6000 0.0000
v 0.0000 -1.6000 0.0000
v 0.0000 -1.6000 0.0000
v -0.0000 -1.6000 0.0000
v -0.0000 -1.6000 0.0000
v -0.0000 -1.6000 0.0000
v -0.0000 -1.6000 0.0000
v -0.0000 -1.6000 0.0000
v -0.0000 -1.6000 -0.0000
v -0.0000 -1.6000 -0.0000
v -0.0000 -1.6000 -0.0000
v -0.0000 -1.6000 -0.0000
v -0.0000 -1.6000 -0.0000
v 0.0000 -1.6000 -0.0000
v 0.0000 -1.6000 -0.0000
v 0.0000 -1.6000 -0.0000
v 0.0000 -1.6000 -0.0000
vn 0.0000 1.0000 0.0000
vn 0.0000 1.0000 0.0000
vn 0.0000 1.0000 0.0000
vn 0.0000 1.0000 0.0000
vn 0.0000 1.0000 0.0000
vn 0.0000 1.0000 0.0000
vn 0.0000 1.0000 0.0000
vn 0.0000 1.0000 0.0000
vn 0.0000 1.0000 0.0000
vn 0.0000 1.0000 0.0000
vn 0.0000 1.0000 0.0000
vn 0.0000 1.0000 0.0000
vn 0.0000 1.0000 0.0000
vn 0.0000 1.0000 0.0000
vn 0.0000 1.0000 0.0000
vn 0.0000 1.0000 0.0000
vn 0.0000 1.0000 0.0000
vn 0.0000 1.0000 0.0000
vn 0.0000 1.0000 0.0000
vn 0.0000 1.0000 0.0000
vn 0.2588 0.9659 0.0000
vn 0.2462 0.9659 0.0800
vn 0.2094 0.9659 0.1521
vn 0.1521 0.9659 0.2094
vn 0.0800 0.9659 0.2462
vn 0.0000 0.9659 0.2588
vn -0.0800 0.9659 0.2462
vn -0.1521 0.9659 0.2094
vn -0.2094 0.9659 0.1521
vn -0.2462 0.9659 0.0800
vn -0.2588 0.9659 0.0000
vn -0.2462 0.9659 -0.0800
vn -0.2094 0.9659 -0.1521
vn -0.1521 0.9659 -0.2094
vn -0.0800 0.9659 -0.2462
vn -0.0000 0.9659 -0.2588
vn 0.0800 0.9659 -0.2462
vn 0.1521 0.9659 -0.2094
vn 0.2094 0.9659 -0.1521
vn 0.2462 0.9659 -0.0800
vn 0.5000 0.8660 0.0000
vn 0.4755 0.8660 0.1545
vn 0.4045 0.8660 0.2939
vn 0.2939 0.8660 0.4045
vn 0.1545 0.8660 0.4755
vn 0.0000 0.8660 0.5000
vn -0.1545 0.8660 0.4755
vn -0.2939 0.8660 0.4045
vn -0.4045 0.8660 0.2939
vn -0.4755 0.8660 0.1545
vn -0.5000 0.8660 0.0000
vn -0.4755 0.8660 -0.1545
vn -0.4045 0.8660 -0.2939
vn -0.2939 0.8660 -0.4045
vn -0.1545 0.8660 -0.4755
vn -0.0000 0.8660 -0.5000
vn 0.1545 0.8660 -0.4755
vn 0.2939 0.8660 -0.4045
vn 0.4045 0.8660 -0.2939
vn 0.4755 0.8660 -0.1545
vn 0.7071 0.7071 0.0000
vn 0.6725 0.7071 0.2185
vn 0.5721 0.7071 0.4156
vn 0.4156 0.7071 0.5721
vn 0.2185 0.7071 0.6725
vn 0.0000 0.7071 0.7071
vn -0.2185 0.7071 0.6725
vn -0.4156 0.7071 0.5721
vn -0.5721 0.7071 0.4156
vn -0.6725 0.7071 0.2185
vn -0.7071 0.7071 0.0000
vn -0.6725 0.7071 -0.2185
vn -0.5721 0.7071 -0.4156
vn -0.4156 0.7071 -0.5721
vn -0.2185 0.7071 -0.6725
vn -0.0000 0.7071 -0.7071
vn 0.2185 0.7071 -0.6725
vn 0.4156 0.7071 -0.5721
vn 0.5721 0.7071 -0.4156
vn 0.6725 0.7071 -0.2185
vn 0.8660 0.5000 0.0000
vn 0.8236 0.5000 0.2676
vn 0.7006 0.5000 0.5090
vn 0.5090 0.5000 0.7006
vn 0.2676 0.5000 0.8236
vn 0.0000 0.5000 0.8660
vn -0.2676 0.5000 0.8236
vn -0.5090 0.5000 0.7006
vn -0.7006 0.5000 0.5090
vn -0.8236 0.5000 0.2676
vn -0.8660 0.5000 0.0000
vn -0.8236 0.5000 -0.2676
vn -0.7006 0.5000 -0.5090
vn -0.5090 0.5000 -0.7006
vn -0.2676 0.5000 -0.8236
vn -0.0000 0.5000 -0.8660
vn 0.2676 0.5000 -0.8236
vn 0.5090 0.5000 -0.7006
vn 0.7006 0.5000 -0.5090
vn 0.8236 0.5000 -0.2676
vn 0.9659 0.2588 0.0000
vn 0.9187 0.2588 0.2985
vn 0.7815 0.2588 0.5678
vn 0.5678 0.2588 0.7815
vn 0.2985 0.2588 0.9187
vn 0.0000 0.2588 0.9659
vn -0.2985 0.2588 0.9187
vn -0.5678 0.2588 0.7815
vn -0.7815 0.2588 0.5678
vn -0.9187 0.2588 0.2985
vn -0.9659 0.2588 0.0000
vn -0.9187 0.2588 -0.2985
vn -0.7815 0.2588 -0.5678
vn -0.5678 0.2588 -0.7815
vn -0.2985 0.2588 -0.9187
vn -0.0000 0.2588 -0.9659
vn 0.2985 0.2588 -0.9187
vn 0.5678 0.2588 -0.7815
vn 0.7815 0.2588 -0.5678
vn 0.9187 0.2588 -0.2985
vn 1.0000 0.0000 0.0000
vn 0.9511 0.0000 0.3090
vn 0.8090 0.0000 0.5878
vn 0.5878 0.0000 0.8090
vn 0.3090 0.0000 0.9511
vn 0.0000 0.0000 1.0000
vn -0.3090 0.0000 0.9511
vn -0.5878 0.0000 0.8090
vn -0.8090 0.0000 0.5878
vn -0.9511 0.0000 0.3090
vn -1.0000 0.0000 0.0000
vn -0.9511 0.0000 -0.3090
vn -0.8090 0.0000 -0.5878
vn -0.5878 0.0000 -0.8090
vn -0.3090 0.0000 -0.9511
vn -0.0000 0.0000 -1.0000
vn 0.3090 0.0000 -0.9511
vn 0.5878 0.0000 -0.8090
vn 0.8090 0.0000 -0.5878
vn 0.9511 0.0000 -0.3090
vn 0.9659 -0.2588 0.0000
vn 0.9187 -0.2588 0.2985
vn 0.7815 -0.2588 0.5678
vn 0.5678 -0.2588 0.7815
vn 0.2985 -0.2588 0.9187
vn 0.0000 -0.2588 0.9659
vn -0.2985 -0.2588 0.9187
vn -0.5678 -0.2588 0.7815
vn -0.7815 -0.2588 0.5678
vn -0.9187 -0.2588 0.2985
vn -0.9659 -0.2588 0.0000
vn -0.9187 -0.2588 -0.2985
vn -0.7815 -0.2588 -0.5678
vn -0.5678 -0.2588 -0.7815
vn -0.2985 -0.2588 -0.9187
vn -0.0000 -0.2588 -0.9659
vn 0.2985 -0.2588 -0.9187
vn 0.5678 -0.2588 -0.7815
vn 0.7815 -0.2588 -0.5678
vn 0.9187 -0.2588 -0.2985
vn 0.8660 -0.5000 0.0000
vn 0.8236 -0.5000 0.2676
vn 0.7006 -0.5000 0.5090
vn 0.5090 -0.5000 0.7006
vn 0.2676 -0.5000 0.8236
vn 0.0000 -0.5000 0.8660
vn -0.2676 -0.5000 0.8236
vn -0.5090 -0.5000 0.7006
vn -0.7006 -0.5000 0.5090
vn -0.8236 -0.5000 0.2676
vn -0.8660 -0.5000 0.0000
vn -0.8236 -0.5000 -0.2676
vn -0.7006 -0.5000 -0.5090
vn -0.5090 -0.5000 -0.7006
vn -0.2676 -0.5000 -0.8236
vn -0.0000 -0.5000 -0.8660
vn 0.2676 -0.5000 -0.8236
vn 0.5090 -0.5000 -0.7006
vn 0.7006 -0.5000 -0.5090
vn 0.8236 -0.5000 -0.2676
vn 0.7071 -0.7071 0.0000
vn 0.6725 -0.7071 0.2185
vn 0.5721 -0.7071 0.4156
vn 0.4156 -0.7071 0.5721
vn 0.2185 -0.7071 0.6725
vn 0.0000 -0.7071 0.7071
vn -0.2185 -0.7071 0.6725
vn -0.4156 -0.7071 0.5721
vn -0.5721 -0.7071 0.4156
vn -0.6725 -0.7071 0.2185
vn -0.7071 -0.7071 0.0000
vn -0.6725 -0.7071 -0.2185
vn -0.5721 -0.7071 -0.4156
vn -0.4156 -0.7071 -0.5721
vn -0.2185 -0.7071 -0.6725
vn -0.0000 -0.7071 -0.7071
vn 0.2185 -0.7071 -0.6725
vn 0.4156 -0.7071 -0.5721
vn 0.5721 -0.7071 -0.4156
vn 0.6725 -0.7071 -0.2185
vn 0.5000 -0.8660 0.0000
vn 0.4755 -0.8660 0.1545
vn 0.4045 -0.8660 0.2939
vn 0.2939 -0.8660 0.4045
vn 0.1545 -0.8660 0.4755
vn 0.0000 -0.8660 0.5000
vn -0.1545 -0.8660 0.4755
vn -0.2939 -0.8660 0.4045
vn -0.4045 -0.8660 0.2939
vn -0.4755 -0.8660 0.1545
vn -0.5000 -0.8660 0.0000
vn -0.4755 -0.8660 -0.1545
vn -0.4045 -0.8660 -0.2939
vn -0.2939 -0.8660 -0.4045
vn -0.1545 -0.8660 -0.4755
vn -0.0000 -0.8660 -0.5000
vn 0.1545 -0.8660 -0.4755
vn 0.2939 -0.8660 -0.4045
vn 0.4045 -0.8660 -0.2939
vn 0.4755 -0.8660 -0.1545
vn 0.2588 -0.9659 0.0000
vn 0.2462 -0.9659 0.0800
vn 0.2094 -0.9659 0.1521
vn 0.1521 -0.9659 0.2094
vn 0.0800 -0.9659 0.2462
vn 0.0000 -0.9659 0.2588
vn -0.0800 -0.9659 0.2462
vn -0.1521 -0.9659 0.2094
vn -0.2094 -0.9659 0.1521
vn -0.2462 -0.9659 0.0800
vn -0.2588 -0.9659 0.0000
vn -0.2462 -0.9659 -0.0800
vn -0.2094 -0.9659 -0.1521
vn -0.1521 -0.9659 -0.2094
vn -0.0800 -0.9659 -0.2462
vn -0.0000 -0.9659 -0.2588
vn 0.0800 -0.9659 -0.2462
vn 0.1521 -0.9659 -0.2094
vn 0.2094 -0.9659 -0.1521
vn 0.2462 -0.9659 -0.0800
vn 0.0000 -1.0000 0.0000
vn 0.0000 -1.0000 0.0000
vn 0.0000 -1.0000 0.0000
vn 0.0000 -1.0000 0.0000
vn 0.0000 -1.0000 0.0000
vn 0.0000 -1.0000 0.0000
vn -0.0000 -1.0000 0.0000
vn -0.0000 -1.0000 0.0000
vn -0.0000 -1.0000 0.0000
vn -0.0000 -1.0000 0.0000
vn -0.0000 -1.0000 0.0000
vn -0.0000 -1.0000 -0.0000
vn -0.0000 -1.0000 -0.0000
vn -0.0000 -1.0000 -0.0000
vn -0.0000 -1.0000 -0.0000
vn -0.0000 -1.0000 -0.0000
vn 0.0000 -1.0000 -0.0000
vn 0.0000 -1.0000 -0.0000
vn 0.0000 -1.0000 -0.0000
vn 0.0000 -1.0000 -0.0000
f 1//1 2//2 22//22 21//21
f 2//2 3//3 23//23 22//22
f 3//3 4//4 24//24 23//23
f 4//4 5//5 25//25 24//24
f 5//5 6//6 26//26 25//25
f 6//6 7//7 27//27 26//26
f 7//7 8//8 28//28 27//27
f 8//8 9//9 29//29 28//28
f 9//9 10//10 30//30 29//29
f 10//10 11//11 31//31 30//30
f 11//11 12//12 32//32 31//31
f 12//12 13//13 33//33 32//32
f 13//13 14//14 34//34 33//33
f 14//14 15//15 35//35 34//34
f 15//15 16//16 36//36 35//35
f 16//16 17//17 37//37 36//36
f 17//17 18//18 38//38 37//37
f 18//18 19//19 39//39 38//38
f 19//19 20//20 40//40 39//39
f 20//20 1//1 21//21 40//40
f 21//21 22//22 42//42 41//41
f 22//22 23//23 43//43 42//42
f 23//23 24//24 44//44 43//43
f 24//24 25//25 45//45 44//44
f 25//25 26//26 46//46 45//45
f 26//26 27//27 47//47 46//46
f 27//27 28//28 48//48 47//47
f 28//28 29//29 49//49 48//48
f 29//29 30//30 50//50 49//49
f 30//30 31//31 51//51 50//50
f 31//31 32//32 52//52 51//51
f 32//32 33//33 53//53 52//52
f 33//33 34//34 54//54 53//53
f 34//34 35//35 55//55 54//54
f 35//35 36//36 56//56 55//55
f 36//36 37//37 57//57 56//56
f 37//37 38//38 58//58 57//57
f 38//38 39//39 59//59 58//58
f 39//39 40//40 60//60 59//59
f 40//40 21//21 41//41 60//60
f 41//41 42//42 62//62 61//61
f 42//42 43//43 63//63 62//62
f 43//43 44//44 64//64 63//63
f 44//44 45//45 65//65 64//64
f 45//45 46//46 66//66 65//65
f 46//46 47//47 67//67 66//66
f 47//47 48//48 68//68 67//67
f 48//48 49//49 69//69 68//68
f 49//49 50//50 70//70 69//69
f 50//50 51//51 71//71 70//70
f 51//51 52//52 72//72 71//71
f 52//52 53//53 73//73 72//72
f 53//53 54//54 74//74 73//73
f 54//54 55//55 75//75 74//74
f 55//55 56//56 76//76 75//75
f 56//56 57//57 77//77 76//76
f 57//57 58//58 78//78 77//77
f 58//58 59//59 79//79 78//78
f 59//59 60//60 80//80 79//79
f 60//60 41//41 61//61 80//80
f 61//61 62//62 82//82 81//81
f 62//62 63//63 83//83 82//82
f 63//63 64//64 84//84 83//83
f 64//64 65//65 85//85 84//84
f 65//65 66//66 86//86 85//85
f 66//66 67//67 87//87 86//86
f 67//67 68//68 88//88 87//87
f 68//68 69//69 89//89 88//88
f 69//69 70//70 90//90 89//89
f 70//70 71//71 91//91 90//90
f 71//71 72//72 92//92 91//91
f 72//72 73//73 93//93 92//92
f 73//73 74//74 94//94 93//93
f 74//74 75//75 95//95 94//94
f 75//75 76//76 96//96 95//95
f 76//76 77//77 97//97 96//96
f 77//77 78//78 98//98 97//97
f 78//78 79//79 99//99 98//98
f 79//79 80//80 100//100 99//99
f 80//80 61//61 81//81 100//100
f 81//81 82//82 102//102 101//101
f 82//82 83//83 103//103 102//102
f 83//83 84//84 104//104 103//103
f 84//84 85//85 105//105 104//104
f 85//85 86//86 106//106 105//105
f 86//86 87//87 107//107 106//106
f 87//87 88//88 108//108 107//107
f 88//88 89//89 109//109 108//108
f 89//89 90//90 110//110 109//109
f 90//90 91//91 111//111 110//110
f 91//91 92//92 112//112 111//111
f 92//92 93//93 113//113 112//112
f 93//93 94//94 114//114 113//113
f 94//94 95//95 115//115 114//114
f 95//95 96//96 116//116 115//115
f 96//96 97//97 117//117 116//116
f 97//97 98//98 118//118 117//117
f 98//98 99//99 119//119 118//118
f 99//99 100//100 120//120 119//119
f 100//100 81//81 101//101 120//120
f 101//101 102//102 122//122 121//121
f 102//102 103//103 123//123 122//122
f 103//103 104//104 124//124 123//123
f 104//104 105//105 125//125 124//124
f 105//105 106//106 126//126 125//125
f 106//106 107//107 127//127 126//126
f 107//107 108//108 128//128 127//127
f 108//108 109//109 129//129 128//128
f 109//109 110//110 130//130 129//129
f 110//110 111//111 131//131 130//130
f 111//111 112//112 132//132 131//131
f 112//112 113//113 133//133 132//132
f 113//113 114//114 134//134 133//133
f 114//114 115//115 135//135 134//134
f 115//115 116//116 136//136 135//135
f 116//116 117//117 137//137 136//136
f 117//117 118//118 138//138 137//137
f 118//118 119//119 139//139 138//138
f 119//119 120//120 140//140 139//139
f 120//120 101//101 121//121 140//140
f 121//121 122//122 142//142 141//141
f 122//122 123//123 143//143 142//142
f 123//123 124//124 144//144 143//143
f 124//124 125//125 145//145 144//144
f 125//125 126//126 146//146 145//145
f 126//126 127//127 147//147 146//146
f 127//127 128//128 148//148 147//147
f 128//128 129//129 149//149 148//148
f 129//129 130//130 150//150 149//149
f 130//130 131//131 151//151 150//150
f 131//131 132//132 152//152 151//151
f 132//132 133//133 153//153 152//152
f 133//133 134//134 154//154 153//153
f 134//134 135//135 155//155 154//154
f 135//135 136//136 156//156 155//155
f 136//136 137//137 157//157 156//156
f 137//137 138//138 158//158 157//157
f 138//138 139//139 159//159 158//158
f 139//139 140//140 160//160 159//159
f 140//140 121//121 141//141 160//160
f 141//141 142//142 162//162 161//161
f 142//142 143//143 163//163 162//162
f 143//143 144//144 164//164 163//163
f 144//144 145//145 165//165 164//164
f 145//145 146//146 166//166 165//165
f 146//146 147//147 167//167 166//166
f 147//147 148//148 168//168 167//167
f 148//148 149//149 169//169 168//168
f 149//149 150//150 170//170 169//169
f 150//150 151//151 171//171 170//170
f 151//151 152//152 172//172 171//171
f 152//152 153//153 173//173 172//172
f 153//153 154//154 174//174 173//173
f 154//154 155//155 175//175 174//174
f 155//155 156//156 176//176 175//175
f 156//156 157//157 177//177 176//176
f 157//157 158//158 178//178 177//177
f 158//158 159//159 179//179 178//178
f 159//159 160//160 180//180 179//179
f 160//160 141//141 161//161 180//180
f 161//161 162//162 182//182 181//181
f 162//162 163//163 183//183 182//182
f 163//163 164//164 184//184 183//183
f 164//164 165//165 185//185 184//184
f 165//165 166//166 186//186 185//185
f 166//166 167//167 187//187 186//186
f 167//167 168//168 188//188 187//187
f 168//168 169//169 189//189 188//188
f 169//169 170//170 190//190 189//189
f 170//170 171//171 191//191 190//190
f 171//171 172//172 192//192 191//191
f 172//172 173//173 193//193 192//192
f 173//173 174//174 194//194 193//193
f 174//174 175//175 195//195 194//194
f 175//175 176//176 196//196 195//195
f 176//176 177//177 197//197 196//196
f 177//177 178//178 198//198 197//197
f 178//178 179//179 199//199 198//198
f 179//179 180//180 200//200 199//199
f 180//180 161//161 181//181 200//200
f 181//181 182//182 202//202 201//201
f 182//182 183//183 203//203 202//202
f 183//183 184//184 204//204 203//203
f 184//184 185//185 205//205 204//204
f 185//185 186//186 206//206 205//205
f 186//186 187//187 207//207 206//206
f 187//187 188//188 208//208 207//207
f 188//188 189//189 209//209 208//208
f 189//189 190//190 210//210 209//209
f 190//190 191//191 211//211 210//210
f 191//191 192//192 212//212 211//211
f 192//192 193//193 213//213 212//212
f 193//193 194//194 214//214 213//213
f 194//194 195//195 215//215 214//214
f 195//195 196//196 216//216 215//215
f 196//196 197//197 217//217 216//216
f 197//197 198//198 218//218 217//217
f 198//198 199//199 219//219 218//218
f 199//199 200//200 220//220 219//219
f 200//200 181//181 201//201 220//220
f 201//201 202//202 222//222 221//221
f 202//202 203//203 223//223 222//222
f 203//203 204//204 224//224 223//223
f 204//204 205//205 225//225 224//224
f 205//205 206//206 226//226 225//225
f 206//206 207//207 227//227 226//226
f 207//207 208//208 228//228 227//227
f 208//208 209//209 229//229 228//228
f 209//209 210//210 230//230 229//229
f 210//210 211//211 231//231 230//230
f 211//211 212//212 232//232 231//231
f 212//212 213//213 233//233 232//232
f 213//213 214//214 234//234 233//233
f 214//214 215//215 235//235 234//234
f 215//215 216//216 236//236 235//235
f 216//216 217//217 237//237 236//236
f 217//217 218//218 238//238 237//237
f 218//218 219//219 239//239 238//238
f 219//219 220//220 240//240 239//239
f 220//220 201//201 221//221 240//240
f 221//221 222//222 242//242 241//241
f 222//222 223//223 243//243 242//242
f 223//223 224//224 244//244 243//243
f 224//224 225//225 245//245 244//244
f 225//225 226//226 246//246 245//245
f 226//226 227//227 247//247 246//246
f 227//227 228//228 248//248 247//247
f 228//228 229//229 249//249 248//248
f 229//229 230//230 250//250 249//249
f 230//230 231//231 251//251 250//250
f 231//231 232//232 252//252 251//251
f 232//232 233//233 253//253 252//252
f 233//233 234//234 254//254 253//253
f 234//234 235//235 255//255 254//254
f 235//235 236//236 256//256 255//255
f 236//236 237//237 257//257 256//256
f 237//237 238//238 258//258 257//257
f 238//238 239//239 259//259 258//258
f 239//239 240//240 260//260 259//259
f 240//240 221//221 241//241 260//260
